<?xml version="1.0" encoding="UTF-8"?>
<svg id="Calque_1" data-name="Calque 1" xmlns="http://www.w3.org/2000/svg" viewBox="0 0 308.44 44.39">
  <defs>
    <style>
      .cls-1 {
        fill: #f7f0dc;
      }
    </style>
  </defs>
  <g>
    <path class="cls-1" d="M26.25.34c6.16.08,11.03,1.42,14.62,4.01,3.59,2.59,5.38,6.42,5.38,11.47s-1.79,8.84-5.35,11.47c-3.57,2.63-8.47,3.95-14.72,3.95h-10.4l1.41,11.99-17.19-.06V.34h26.25ZM25.76,23.16c3.06,0,4.59-.8,4.59-2.39s-1.53-2.33-4.59-2.33h-9.97v4.71h9.97Z"/>
    <path class="cls-1" d="M39.59,43.17L57.21.34h18.91l17.62,42.83h-21.97l-1.41-8.63h-7.4l-1.41,8.63h-21.97ZM69.21,29.59l-2.02-12.73h-1.1l-1.96,12.73h5.08Z"/>
    <path class="cls-1" d="M94.72,43.17V.34h14.75l17.62,19.09.98-.31L124.46.34h19.15v42.83h-14.38l-18.05-22.89-.92.24,4.41,22.64h-19.95Z"/>
    <path class="cls-1" d="M233.48,0c6.36.08,11.29,1.1,14.78,3.06,3.49,1.96,5.23,5.22,5.23,9.79,0,7.38-6.53,11.08-19.58,11.08v.92h4.53c5.51,0,9.52,1.44,12.05,4.31,2.53,2.88,3.79,6.37,3.79,10.49,0,1.02-.06,2.08-.18,3.18h-19.76c.65-2.94.99-5.02,1.01-6.24.02-1.22.03-1.86.03-1.9,0-2.33-.53-4.23-1.59-5.72-1.06-1.49-2.61-2.23-4.65-2.23h-6.06l1.47,16.09h-17.32V0h26.25ZM232.74,21.78c3.22,0,4.83-.71,4.83-2.14,0-1.35-1.61-2.02-4.83-2.02h-9.73v4.16h9.73Z"/>
    <path class="cls-1" d="M254.28,42.83L271.91,0h18.91l17.62,42.83h-21.97l-1.41-8.63h-7.4l-1.41,8.63h-21.97ZM283.9,29.25l-2.02-12.73h-1.1l-1.96,12.73h5.08Z"/>
  </g>
  <path class="cls-1" d="M205.15,28.15c-2.37,2.9-5.4,5.51-9.09,7.85-3.69,2.33-7.75,4.23-12.16,5.7-3.78,1.25-7.55,2.07-11.34,2.45-3.78.38-7.39.3-10.82-.25-3.43-.55-6.62-1.53-9.56-2.96-2.58-1.25-4.69-2.76-6.33-4.52-1.64-1.76-2.72-3.67-3.23-5.72-.51-2.05-.43-4.2.24-6.44.67-2.24,1.89-4.44,3.66-6.61,2.87-3.51,6.53-6.54,10.99-9.11,4.46-2.56,9.2-4.47,14.21-5.72,5.02-1.25,9.98-1.76,14.88-1.52,4.91.23,9.26,1.27,13.07,3.12,3.53,1.71,6.12,3.84,7.79,6.41,1.66,2.57,2.3,5.35,1.91,8.36-.39,3.01-1.79,5.99-4.21,8.96ZM201.46,24.52c1.59-1.95,2.7-3.86,3.34-5.74.64-1.87.8-3.64.5-5.3-.31-1.66-1.07-3.19-2.29-4.58-1.22-1.4-2.93-2.63-5.14-3.71-2.29-1.12-4.88-1.84-7.75-2.17-2.88-.33-5.9-.23-9.08.29-3.18.52-6.42,1.46-9.72,2.81-3.68,1.49-7.43,3.6-11.24,6.34-3.81,2.73-6.85,5.5-9.12,8.29-2.14,2.62-3.43,5.17-3.88,7.65-.45,2.48-.06,4.75,1.19,6.82,1.24,2.07,3.24,3.77,5.97,5.1,2.57,1.25,5.52,2,8.85,2.24,3.33.24,6.8-.02,10.39-.79s7.1-2,10.52-3.68c3.03-1.49,6.19-3.5,9.49-6.04,3.3-2.54,5.96-5.05,7.98-7.53Z"/>
</svg>